<svg id="图层_1" data-name="图层 1" xmlns="http://www.w3.org/2000/svg" viewBox="0 0 330.73 168"><defs><style>.cls-1{fill:#fff;}.cls-2{fill:#ebebe0;}.cls-3{fill:#35495e;}.cls-4{fill:#41b883;}.cls-5{fill:#20995f;}.cls-6{fill:#81c6a2;}</style></defs><title>logo-3</title><rect class="cls-1" x="308.46" y="60.68" width="22.27" height="22.31" rx="3.25" ry="3.25"/><rect class="cls-2" width="103.94" height="104.11" rx="10" ry="10"/><path class="cls-3" d="M22.14,32.29l24.75-.46q-1-3-2.63-7.42l9-2q2.33,5.86,3.55,9.25l22.56-.42.15,8-8.79.16a62.8,62.8,0,0,1-12.45,23A68,68,0,0,0,81,71.6a80.92,80.92,0,0,0-6.35,8.84A75.62,75.62,0,0,1,51.42,68.88a91.79,91.79,0,0,1-23.1,12.77,92.57,92.57,0,0,0-6.08-8.49A84,84,0,0,0,44.31,62.49a54.81,54.81,0,0,1-12.5-22.37l-9.53.18Zm38.54,7.29L41,39.95a41.89,41.89,0,0,0,10.2,16.63A40.71,40.71,0,0,0,60.68,39.58Z" transform="translate(-0.03 -0.07)"/><rect class="cls-4" x="64.06" y="63.89" width="103.94" height="104.11" rx="10" ry="10"/><rect class="cls-4" x="27.89" y="110.03" width="13.54" height="17.17"/><polyline class="cls-5" points="27.89 110.03 27.89 127.2 41.43 127.2"/><polygon class="cls-4" points="48.29 110.5 20.95 110.45 34.44 97.61 48.29 110.5"/><polygon class="cls-6" points="69.94 133.75 57.13 120.24 57.11 127.2 27.89 127.2 41.43 140.76 57.09 140.76 57.07 147.63 69.94 133.75"/><path class="cls-1" d="M140.21,139.65H129.31L125,128.36H105.16l-4.1,11.29H90.44L109.76,90h10.59ZM121.77,120l-6.83-18.44L108.23,120Z" transform="translate(-0.03 -0.07)"/><path class="cls-3" d="M312.48,66.47,316,66.4q-.14-.43-.38-1.07L317,65q.33.84.51,1.33l3.24-.06,0,1.15-1.26,0a9,9,0,0,1-1.79,3.3,9.76,9.76,0,0,0,3.26,1.32,11.62,11.62,0,0,0-.91,1.27,10.86,10.86,0,0,1-3.33-1.66,13.18,13.18,0,0,1-3.32,1.83,13.29,13.29,0,0,0-.87-1.22,12.06,12.06,0,0,0,3.17-1.53,7.87,7.87,0,0,1-1.79-3.21l-1.37,0Zm5.54,1-2.83.05A6,6,0,0,0,316.65,70,5.85,5.85,0,0,0,318,67.51Z" transform="translate(-0.03 -0.07)"/><path class="cls-4" d="M328.31,78.88H326l-.93-2.42H320.8l-.88,2.42h-2.28l4.14-10.65h2.27Zm-4-4.21-1.46-4-1.44,4Z" transform="translate(-0.03 -0.07)"/><rect class="cls-4" x="314.36" y="73.39" width="1.52" height="1.92"/><polyline class="cls-5" points="314.36 73.39 314.36 75.31 315.87 75.31"/><polygon class="cls-4" points="316.64 73.44 313.58 73.43 315.09 71.99 316.64 73.44"/><polygon class="cls-6" points="319.07 76.04 317.63 74.53 317.63 75.31 314.36 75.31 315.87 76.83 317.63 76.83 317.63 77.6 319.07 76.04"/></svg>