<?xml version="1.0" encoding="utf-8"?>
<!-- Generator: Adobe Illustrator 21.0.0, SVG Export Plug-In . SVG Version: 6.00 Build 0)  -->
<svg version="1.1" id="图层_1" xmlns="http://www.w3.org/2000/svg" xmlns:xlink="http://www.w3.org/1999/xlink" x="0px" y="0px"
	 viewBox="0 0 36 36" style="enable-background:new 0 0 36 36;" xml:space="preserve">
<style type="text/css">
	.st0{fill:#E2E2E2;}
	.st1{fill:#41B883;}
	.st2{fill:#159356;}
	.st3{fill:#C9C9C9;}
	.st4{fill:#FFFFFF;}
</style>
<title>logo-</title>
<g>
	<path class="st0" d="M19.3,23.7H3c-1.7,0-3-1.3-3-3V4.4c0-1.7,1.3-3,3-3h16.3c1.7,0,3,1.3,3,3v16.3C22.3,22.3,21,23.7,19.3,23.7z"
		/>
</g>
<g>
	<path d="M4.8,8.4l5.3-0.1c-0.1-0.4-0.3-1-0.6-1.6l1.9-0.4c0.3,0.8,0.6,1.5,0.8,2L17,8.2v1.7h-1.9c-0.6,1.9-1.5,3.6-2.7,4.9
		c1.3,0.9,2.9,1.5,4.9,2c-0.7,0.9-1.1,1.5-1.4,1.9c-1.9-0.6-3.6-1.4-5-2.5c-1.3,1-3,2-4.9,2.7c-0.5-0.7-0.9-1.3-1.3-1.8
		c1.9-0.6,3.5-1.4,4.7-2.3c-1.2-1.3-2.1-2.9-2.7-4.8h-2L4.8,8.4z M13,10H8.8c0.5,1.4,1.2,2.6,2.2,3.6C12,12.6,12.6,11.3,13,10z"/>
</g>
<g>
	<path class="st1" d="M33,34.8H16.8c-1.7,0-3-1.3-3-3V15.5c0-1.7,1.3-3,3-3H33c1.7,0,3,1.3,3,3v16.3C36,33.5,34.7,34.8,33,34.8z"/>
</g>
<g>
	<rect x="6.1" y="24.8" class="st1" width="2.9" height="3.7"/>
</g>
<g>
	<polyline class="st2" points="6.1,24.9 6.1,28.5 9,28.5 	"/>
</g>
<g>
	<path class="st1" d="M4.9,24.9h5.4c0.1,0,0.1-0.1,0.1-0.2l-2.6-2.5H7.7L5,24.7C4.7,24.8,4.8,24.9,4.9,24.9z"/>
</g>
<g>
	<polygon class="st3" points="9,31.4 6.1,28.5 12.3,28.5 12.3,31.4 	"/>
</g>
<g>
	<path class="st3" d="M12.2,32.5v-5.4c0-0.1,0.1-0.1,0.2-0.1l2.5,2.6v0.1l-2.5,2.7C12.3,32.7,12.2,32.6,12.2,32.5z"/>
</g>
<g>
	<path class="st4" d="M30.1,28.8h-2.3l-0.9-2.4h-4.2l-0.9,2.4h-2.3l4.1-10.6h2.3L30.1,28.8z M26.1,24.6l-1.5-3.9l-1.4,3.9H26.1z"/>
</g>
</svg>
