<?xml version="1.0" encoding="utf-8"?>
<!-- Generator: Adobe Illustrator 21.0.0, SVG Export Plug-In . SVG Version: 6.00 Build 0)  -->
<svg version="1.1" id="图层_1" xmlns="http://www.w3.org/2000/svg" xmlns:xlink="http://www.w3.org/1999/xlink" x="0px" y="0px"
	 viewBox="0 0 32 32" style="enable-background:new 0 0 32 32;" xml:space="preserve">
<style type="text/css">
	.st0{fill:#EBEBE0;}
	.st1{fill:#35495E;}
	.st2{fill:#41B883;}
	.st3{fill:#20995F;}
	.st4{fill:#81C6A2;}
	.st5{fill:#FFFFFF;}
</style>
<title>logo-3</title>
<g>
	<path class="st0" d="M2,0.2h16c1.1,0,1.9,0.9,1.9,1.9v16.1c0,1.1-0.9,1.9-1.9,1.9H2c-1.1,0-1.9-0.9-1.9-1.9V2.1
		C0.1,1.1,0.9,0.2,2,0.2z"/>
	<path class="st1" d="M4.2,6.3L9,6.2C8.8,5.8,8.7,5.3,8.5,4.8l1.7-0.4c0.3,0.7,0.5,1.3,0.7,1.8l4.3-0.1l0,1.5l-1.7,0
		c-0.5,1.6-1.3,3.1-2.4,4.4c1.3,0.8,2.8,1.4,4.3,1.8c-0.4,0.5-0.8,1.1-1.2,1.7c-1.6-0.5-3.1-1.2-4.4-2.2c-1.3,1-2.8,1.8-4.4,2.4
		c-0.4-0.6-0.7-1.1-1.2-1.6c1.5-0.5,2.9-1.2,4.2-2c-1.1-1.2-1.9-2.7-2.4-4.3l-1.8,0L4.2,6.3z M11.6,7.7L7.8,7.7
		c0.4,1.2,1.1,2.3,1.9,3.2C10.6,10,11.3,8.9,11.6,7.7z"/>
	<path class="st2" d="M14.1,12.3h16c1.1,0,1.9,0.9,1.9,1.9v16.1c0,1.1-0.9,1.9-1.9,1.9h-16c-1.1,0-1.9-0.9-1.9-1.9V14.2
		C12.2,13.2,13.1,12.3,14.1,12.3z"/>
	<rect x="5.3" y="21.1" class="st2" width="2.6" height="3.3"/>
	<polyline class="st3" points="5.3,21.1 5.3,24.4 7.9,24.4 	"/>
	<polygon class="st2" points="9.2,21.2 4,21.2 6.6,18.8 	"/>
	<polygon class="st4" points="13.4,25.7 10.9,23.1 10.9,24.4 5.3,24.4 7.9,27 10.9,27 10.9,28.3 	"/>
	<path class="st5" d="M26.7,26.8h-2.1l-0.8-2.2h-3.8l-0.8,2.2h-2l3.7-9.5h2L26.7,26.8z M23.2,23l-1.3-3.5L20.7,23H23.2z"/>
</g>
</svg>
